<svg id="SvgjsSvg1001" width="256" height="256" xmlns="http://www.w3.org/2000/svg" version="1.1" xmlns:xlink="http://www.w3.org/1999/xlink" xmlns:svgjs="http://svgjs.com/svgjs"><defs id="SvgjsDefs1002"></defs><g id="SvgjsG1008"><svg xmlns="http://www.w3.org/2000/svg" viewBox="0 0 32 32" width="256" height="256"><path d="M25.4,10.639a3.512,3.512,0,0,0-4.661-1.7c-.078.036-.141.095-.215.136L18.367,4.437a1,1,0,0,0-1.483-.4C15.093,5.3,13.5,7.606,11.948,9.834a27.588,27.588,0,0,1-2.975,3.84l-.04-.088A1,1,0,0,0,7.6,13.1l-4.541,2.11a1,1,0,0,0-.485,1.328l.412.887A2.775,2.775,0,0,0,1.677,21.1l.426.918a2.768,2.768,0,0,0,3.656,1.367l.412.886a1,1,0,0,0,1.329.486l.589-.274,3.674,4.421a1.894,1.894,0,0,0,2.253.506l1.562-.725a1.893,1.893,0,0,0,.659-2.926l-3.737-4.5-.014-.03a27.641,27.641,0,0,1,4.853.2c1.528.144,3.085.291,4.533.291A12.273,12.273,0,0,0,24.95,21.4a1,1,0,0,0,.654-1.388l-2.151-4.63c.079-.03.162-.046.24-.082A3.513,3.513,0,0,0,25.4,10.639Zm-17.856,4.7.125.271h0l2.5,5.378h0l.126.271L7.563,22.524,4.813,16.6ZM4.359,21.583a.774.774,0,0,1-.442-.406l-.427-.919a.769.769,0,0,1,.345-1.014l1.08,2.325A.773.773,0,0,1,4.359,21.583Zm8.89,5.98-3.283-3.95,1.36-.632,3.283,3.95Zm4.278-8.118a21.886,21.886,0,0,0-5.912-.086L9.844,15.548a21.885,21.885,0,0,0,3.748-4.574A32.553,32.553,0,0,1,17.1,6.464L23.239,19.67A32.522,32.522,0,0,1,17.527,19.445Zm3.836-8.56a1.5,1.5,0,1,1,1.487,2.6,1.583,1.583,0,0,1-.242.077Zm-.2-5.012L21.762,3.2a1,1,0,0,1,1.952.433l-.593,2.677a1,1,0,0,1-.975.784.958.958,0,0,1-.218-.024A1,1,0,0,1,21.168,5.873Zm9,11.856a1,1,0,0,1-1.344.438l-2.445-1.244a1,1,0,1,1,.908-1.782l2.444,1.244A1,1,0,0,1,30.171,17.729ZM30.01,9.418l-2.229,1.053a1,1,0,0,1-.854-1.809L29.156,7.61a1,1,0,0,1,.854,1.808Z" fill="#000000" class="color000 svgShape"></path></svg></g></svg>